<?xml version="1.0" encoding="UTF-8" standalone="no"?>
<!-- Created with Inkscape (http://www.inkscape.org/) -->
<svg
   xmlns:dc="http://purl.org/dc/elements/1.1/"
   xmlns:cc="http://web.resource.org/cc/"
   xmlns:rdf="http://www.w3.org/1999/02/22-rdf-syntax-ns#"
   xmlns:svg="http://www.w3.org/2000/svg"
   xmlns="http://www.w3.org/2000/svg"
   xmlns:sodipodi="http://sodipodi.sourceforge.net/DTD/sodipodi-0.dtd"
   xmlns:inkscape="http://www.inkscape.org/namespaces/inkscape"
   width="510"
   height="420"
   id="svg2423"
   sodipodi:version="0.32"
   inkscape:version="0.45.1"
   sodipodi:docbase="C:\Documents and Settings\Jim\Desktop\Wikipedia\Linear Algebra"
   sodipodi:docname="Matrix Columns.svg"
   version="1.0"
   inkscape:output_extension="org.inkscape.output.svg.inkscape">
  <sodipodi:namedview
     id="base"
     pagecolor="#ffffff"
     bordercolor="#666666"
     borderopacity="1.0"
     gridtolerance="10000"
     guidetolerance="10"
     objecttolerance="10"
     inkscape:pageopacity="0.0"
     inkscape:pageshadow="2"
     inkscape:zoom="0.5452223"
     inkscape:cx="137.44578"
     inkscape:cy="274.49971"
     inkscape:document-units="px"
     inkscape:current-layer="layer1"
     height="420px"
     width="510px"
     gridspacingx="10px"
     gridspacingy="15px"
     showgrid="false"
     inkscape:object-bbox="false"
     inkscape:window-width="1024"
     inkscape:window-height="708"
     inkscape:window-x="-4"
     inkscape:window-y="30" />
  <defs
     id="defs2425" />
  <metadata
     id="metadata2428">
    <rdf:RDF>
      <cc:Work
         rdf:about="">
        <dc:format>image/svg+xml</dc:format>
        <dc:type
           rdf:resource="http://purl.org/dc/dcmitype/StillImage" />
      </cc:Work>
    </rdf:RDF>
  </metadata>
  <g
     inkscape:label="Layer 1"
     id="layer1"
     inkscape:groupmode="layer"
     transform="translate(-25.249482,-238.86771)">
    <g
       id="g5917"
       transform="translate(40,29.99999)">
      <g
         transform="matrix(0.9480162,0,0,0.9480162,-274.28929,-30.009516)"
         id="g2848">
        <g
           xml:space="preserve"
           style="font-style:normal;font-variant:normal;font-weight:normal;font-stretch:normal;letter-spacing:normal;word-spacing:normal;text-anchor:start;fill:none;fill-opacity:1;fill-rule:evenodd;stroke:#000000;stroke-linecap:butt;stroke-linejoin:miter;stroke-miterlimit:10.43299961;stroke-dasharray:none;stroke-dashoffset:0;stroke-opacity:1"
           transform="matrix(1.0629921,0,0,-1.0629921,-186.02362,789.27165)"
           id="g2850"><polygon
             style="fill:#000000;stroke-width:0"
             points="472.24,366.33 475.68,366.33 475.68,452.5 488.83,452.5 488.83,455.94 472.24,455.94 472.24,366.33 "
             id="polygon2852" /><polygon
             style="fill:#000000;stroke-width:0"
             points="475.68,366.05 472.24,366.05 472.24,336.06 475.68,336.06 475.68,366.05 "
             id="polygon2854" /><polygon
             style="fill:#000000;stroke-width:0"
             points="475.68,336.05 472.24,336.05 472.24,306.06 475.68,306.06 475.68,336.05 "
             id="polygon2856" /><polygon
             style="fill:#000000;stroke-width:0"
             points="475.68,307.05 472.24,307.05 472.24,277.06 475.68,277.06 475.68,307.05 "
             id="polygon2858" /><polygon
             style="fill:#000000;stroke-width:0"
             points="475.68,277.05 472.24,277.05 472.24,247.06 475.68,247.06 475.68,277.05 "
             id="polygon2860" /><polygon
             style="fill:#000000;stroke-width:0"
             points="475.68,247.05 472.24,247.05 472.24,217.06 475.68,217.06 475.68,247.05 "
             id="polygon2862" /><polygon
             style="fill:#000000;stroke-width:0"
             points="472.24,127.38 488.83,127.38 488.83,130.82 475.68,130.82 475.68,216.99 472.24,216.99 472.24,127.38 "
             id="polygon2864" /><path
             style="fill:#000000;stroke-width:0"
             d="M 537.65,445.88 L 537.65,445.93 L 537.64,445.99 L 537.64,446.04 L 537.64,446.09 L 537.64,446.14 L 537.64,446.19 L 537.64,446.23 L 537.64,446.28 L 537.64,446.32 L 537.64,446.36 L 537.64,446.4 L 537.64,446.44 L 537.64,446.48 L 537.63,446.52 L 537.63,446.55 L 537.63,446.59 L 537.62,446.62 L 537.62,446.65 L 537.61,446.71 L 537.6,446.76 L 537.58,446.81 L 537.57,446.86 L 537.55,446.9 L 537.53,446.94 L 537.5,446.98 L 537.47,447.01 L 537.44,447.03 L 537.41,447.06 L 537.37,447.08 L 537.32,447.1 L 537.3,447.11 L 537.27,447.12 L 537.25,447.12 L 537.22,447.13 L 537.19,447.14 L 537.16,447.14 L 537.13,447.15 L 537.1,447.15 L 537.07,447.16 L 537.03,447.16 L 536.99,447.16 L 536.96,447.16 L 536.92,447.17 L 536.88,447.17 L 536.84,447.17 L 536.79,447.17 L 536.75,447.17 L 536.7,447.17 L 536.65,447.18 L 536.6,447.18 L 536.55,447.18 L 536.5,447.18 C 533.41,443.99 529.03,443.99 527.43,443.99 L 527.43,442.44 C 528.43,442.44 531.37,442.44 533.96,443.74 L 533.96,417.93 C 533.96,416.14 533.81,415.54 529.33,415.54 L 527.73,415.54 L 527.73,414 C 529.48,414.15 533.81,414.15 535.8,414.15 C 537.79,414.15 542.13,414.15 543.87,414 L 543.87,415.54 L 542.28,415.54 C 537.79,415.54 537.65,416.09 537.65,417.93 L 537.65,445.88 z "
             id="path2866" /><path
             style="fill:#000000;stroke-width:0"
             d="M 638.39,432.03 L 638.72,432.21 L 639.05,432.39 L 639.37,432.57 L 639.68,432.76 L 639.98,432.95 L 640.28,433.15 L 640.57,433.35 L 640.85,433.55 L 641.12,433.76 L 641.38,433.98 L 641.63,434.2 L 641.88,434.42 L 642.11,434.64 L 642.33,434.88 L 642.55,435.11 L 642.75,435.35 L 642.94,435.59 L 643.13,435.84 L 643.3,436.09 L 643.46,436.35 L 643.61,436.61 L 643.74,436.88 L 643.87,437.15 L 643.98,437.42 L 644.08,437.7 L 644.17,437.98 L 644.24,438.26 L 644.31,438.55 L 644.35,438.85 L 644.39,439.15 L 644.41,439.45 L 644.42,439.75 C 644.42,444.34 639.98,447.18 635.45,447.18 L 635.4,445.93 C 639.04,445.93 642.23,443.34 642.23,439.75 C 642.23,436.91 640.28,434.52 637.3,432.78 L 631.12,436.77 C 628.83,438.26 628.63,439.95 628.63,440.8 C 628.63,443.84 631.87,445.93 635.4,445.93 L 635.45,447.18 C 630.47,447.18 626.44,443.49 626.44,438.86 C 626.44,437.96 626.53,435.72 628.63,433.38 C 629.18,432.78 631.02,431.54 632.27,430.69 L 633.41,429.94 C 634.8,429.09 637.15,427.6 639.54,426.05 C 640.93,425.11 643.27,423.61 643.27,420.57 C 643.27,416.89 639.54,414.3 635.45,414.3 C 631.17,414.3 627.58,417.39 627.58,421.52 C 627.58,424.41 629.18,427.6 633.41,429.94 L 633.41,429.94 L 632.27,430.69 C 629.38,429.24 625.09,426.45 625.09,421.52 C 625.09,416.24 630.17,412.9 635.4,412.9 C 641.03,412.9 645.77,417.04 645.77,422.37 C 645.77,424.16 645.22,426.4 643.32,428.5 C 642.38,429.54 641.58,430.04 638.39,432.03 z "
             id="path2868" /><path
             style="fill:#000000;stroke-width:0"
             d="M 724.65,445.88 L 724.65,445.93 L 724.64,445.99 L 724.64,446.04 L 724.64,446.09 L 724.64,446.14 L 724.64,446.19 L 724.64,446.23 L 724.64,446.28 L 724.64,446.32 L 724.64,446.36 L 724.64,446.4 L 724.64,446.44 L 724.64,446.48 L 724.63,446.52 L 724.63,446.55 L 724.63,446.59 L 724.62,446.62 L 724.62,446.65 L 724.61,446.71 L 724.6,446.76 L 724.58,446.81 L 724.57,446.86 L 724.55,446.9 L 724.53,446.94 L 724.5,446.98 L 724.47,447.01 L 724.44,447.03 L 724.41,447.06 L 724.37,447.08 L 724.32,447.1 L 724.3,447.11 L 724.27,447.12 L 724.25,447.12 L 724.22,447.13 L 724.19,447.14 L 724.16,447.14 L 724.13,447.15 L 724.1,447.15 L 724.07,447.16 L 724.03,447.16 L 723.99,447.16 L 723.96,447.16 L 723.92,447.17 L 723.88,447.17 L 723.84,447.17 L 723.79,447.17 L 723.75,447.17 L 723.7,447.17 L 723.65,447.18 L 723.6,447.18 L 723.55,447.18 L 723.5,447.18 C 720.41,443.99 716.03,443.99 714.43,443.99 L 714.43,442.44 C 715.43,442.44 718.37,442.44 720.96,443.74 L 720.96,417.93 C 720.96,416.14 720.81,415.54 716.33,415.54 L 714.73,415.54 L 714.73,414 C 716.48,414.15 720.81,414.15 722.8,414.15 C 724.79,414.15 729.13,414.15 730.87,414 L 730.87,415.54 L 729.28,415.54 C 724.79,415.54 724.65,416.09 724.65,417.93 L 724.65,445.88 z "
             id="path2870" /><path
             style="fill:#000000;stroke-width:0"
             d="M 749.45,431.54 L 749.82,431.67 L 750.2,431.81 L 750.56,431.97 L 750.92,432.14 L 751.27,432.32 L 751.61,432.51 L 751.94,432.71 L 752.26,432.92 L 752.57,433.14 L 752.87,433.37 L 753.17,433.61 L 753.45,433.86 L 753.72,434.12 L 753.98,434.39 L 754.23,434.66 L 754.46,434.95 L 754.69,435.24 L 754.9,435.54 L 755.1,435.84 L 755.29,436.15 L 755.46,436.47 L 755.62,436.8 L 755.77,437.13 L 755.9,437.46 L 756.02,437.8 L 756.12,438.15 L 756.21,438.5 L 756.29,438.85 L 756.34,439.21 L 756.38,439.57 L 756.41,439.93 L 756.42,440.3 C 756.42,444.39 752.03,447.18 747.25,447.18 C 742.22,447.18 738.44,444.19 738.44,440.4 C 738.44,438.76 739.53,437.81 740.98,437.81 C 742.52,437.81 743.52,438.91 743.52,440.35 C 743.52,442.84 741.18,442.84 740.43,442.84 C 741.97,445.28 745.26,445.93 747.05,445.93 C 749.1,445.93 751.84,444.84 751.84,440.35 C 751.84,439.75 751.74,436.86 750.44,434.67 C 748.95,432.28 747.25,432.13 746.01,432.08 C 745.61,432.03 744.41,431.93 744.07,431.93 C 743.67,431.88 743.32,431.83 743.32,431.34 C 743.32,430.79 743.67,430.79 744.52,430.79 L 746.71,430.79 C 750.79,430.79 752.63,427.4 752.63,422.52 C 752.63,415.74 749.2,414.3 747,414.3 C 744.86,414.3 741.13,415.14 739.38,418.09 C 741.13,417.84 742.67,418.93 742.67,420.82 C 742.67,422.62 741.33,423.61 739.88,423.61 C 738.69,423.61 737.09,422.92 737.09,420.73 C 737.09,416.19 741.73,412.9 747.16,412.9 C 753.23,412.9 757.77,417.44 757.77,422.52 C 757.77,426.6 754.63,430.49 749.45,431.54 z "
             id="path2872" /><path
             style="fill:#000000;stroke-width:0"
             d="M 824.65,445.88 L 824.65,445.93 L 824.64,445.99 L 824.64,446.04 L 824.64,446.09 L 824.64,446.14 L 824.64,446.19 L 824.64,446.23 L 824.64,446.28 L 824.64,446.32 L 824.64,446.36 L 824.64,446.4 L 824.64,446.44 L 824.64,446.48 L 824.63,446.52 L 824.63,446.55 L 824.63,446.59 L 824.62,446.62 L 824.62,446.65 L 824.61,446.71 L 824.6,446.76 L 824.58,446.81 L 824.57,446.86 L 824.55,446.9 L 824.53,446.94 L 824.5,446.98 L 824.47,447.01 L 824.44,447.03 L 824.41,447.06 L 824.37,447.08 L 824.32,447.1 L 824.3,447.11 L 824.27,447.12 L 824.25,447.12 L 824.22,447.13 L 824.19,447.14 L 824.16,447.14 L 824.13,447.15 L 824.1,447.15 L 824.07,447.16 L 824.03,447.16 L 823.99,447.16 L 823.96,447.16 L 823.92,447.17 L 823.88,447.17 L 823.84,447.17 L 823.79,447.17 L 823.75,447.17 L 823.7,447.17 L 823.65,447.18 L 823.6,447.18 L 823.55,447.18 L 823.5,447.18 C 820.41,443.99 816.03,443.99 814.43,443.99 L 814.43,442.44 C 815.43,442.44 818.37,442.44 820.96,443.74 L 820.96,417.93 C 820.96,416.14 820.81,415.54 816.33,415.54 L 814.73,415.54 L 814.73,414 C 816.48,414.15 820.81,414.15 822.8,414.15 C 824.79,414.15 829.13,414.15 830.87,414 L 830.87,415.54 L 829.28,415.54 C 824.79,415.54 824.65,416.09 824.65,417.93 L 824.65,445.88 z "
             id="path2874" /><path
             style="fill:#000000;stroke-width:0"
             d="M 857.37,422.67 L 856.12,422.67 C 855.87,421.17 855.52,418.98 855.02,418.23 C 854.68,417.84 851.39,417.84 850.29,417.84 L 841.33,417.84 L 846.6,422.96 C 854.38,429.84 857.37,432.53 857.37,437.51 C 857.37,443.19 852.88,447.18 846.8,447.18 C 841.18,447.18 837.49,442.59 837.49,438.16 C 837.49,435.37 839.98,435.37 840.13,435.37 C 840.98,435.37 842.72,435.97 842.72,438.01 C 842.72,439.3 841.82,440.6 840.08,440.6 C 839.68,440.6 839.58,440.6 839.43,440.55 C 840.58,443.79 843.27,445.63 846.16,445.63 C 850.69,445.63 852.83,441.6 852.83,437.51 C 852.83,433.53 850.34,429.59 847.6,426.5 L 838.04,415.84 C 837.49,415.3 837.49,415.2 837.49,414 L 855.97,414 L 857.37,422.67 z "
             id="path2876" /><path
             style="fill:#000000;stroke-width:0"
             d="M 525.65,355.88 L 525.65,355.93 L 525.64,355.99 L 525.64,356.04 L 525.64,356.09 L 525.64,356.14 L 525.64,356.19 L 525.64,356.23 L 525.64,356.28 L 525.64,356.32 L 525.64,356.36 L 525.64,356.4 L 525.64,356.44 L 525.64,356.48 L 525.63,356.52 L 525.63,356.55 L 525.63,356.59 L 525.62,356.62 L 525.62,356.65 L 525.61,356.71 L 525.6,356.76 L 525.58,356.81 L 525.57,356.86 L 525.55,356.9 L 525.53,356.94 L 525.5,356.98 L 525.47,357.01 L 525.44,357.03 L 525.41,357.06 L 525.37,357.08 L 525.32,357.1 L 525.3,357.11 L 525.27,357.12 L 525.25,357.12 L 525.22,357.13 L 525.19,357.14 L 525.16,357.14 L 525.13,357.15 L 525.1,357.15 L 525.07,357.16 L 525.03,357.16 L 524.99,357.16 L 524.96,357.16 L 524.92,357.17 L 524.88,357.17 L 524.84,357.17 L 524.79,357.17 L 524.75,357.17 L 524.7,357.17 L 524.65,357.18 L 524.6,357.18 L 524.55,357.18 L 524.5,357.18 C 521.41,353.99 517.03,353.99 515.43,353.99 L 515.43,352.44 C 516.43,352.44 519.37,352.44 521.96,353.74 L 521.96,327.93 C 521.96,326.14 521.81,325.54 517.33,325.54 L 515.73,325.54 L 515.73,324 C 517.48,324.15 521.81,324.15 523.8,324.15 C 525.79,324.15 530.13,324.15 531.87,324 L 531.87,325.54 L 530.28,325.54 C 525.79,325.54 525.65,326.09 525.65,327.93 L 525.65,355.88 z "
             id="path2878" /><path
             style="fill:#000000;stroke-width:0"
             d="M 537.4,332.22 L 550.65,332.22 L 550.65,327.89 C 550.65,326.09 550.55,325.54 546.86,325.54 L 545.81,325.54 L 545.81,324 C 547.85,324.15 550.45,324.15 552.54,324.15 C 554.63,324.15 557.27,324.15 559.31,324 L 559.31,325.54 L 558.27,325.54 C 554.58,325.54 554.48,326.09 554.48,327.89 L 554.48,332.22 L 559.46,332.22 L 559.46,333.76 L 554.48,333.76 L 554.48,356.43 C 554.48,357.43 554.48,357.72 553.68,357.72 C 553.23,357.72 553.09,357.72 552.69,357.13 L 537.4,333.76 L 538.79,333.76 L 550.95,352.34 L 550.95,333.76 L 538.79,333.76 L 537.4,333.76 L 537.4,332.22 z "
             id="path2880" /><path
             style="fill:#000000;stroke-width:0"
             d="M 625.65,355.88 L 625.65,355.93 L 625.64,355.99 L 625.64,356.04 L 625.64,356.09 L 625.64,356.14 L 625.64,356.19 L 625.64,356.23 L 625.64,356.28 L 625.64,356.32 L 625.64,356.36 L 625.64,356.4 L 625.64,356.44 L 625.64,356.48 L 625.63,356.52 L 625.63,356.55 L 625.63,356.59 L 625.62,356.62 L 625.62,356.65 L 625.61,356.71 L 625.6,356.76 L 625.58,356.81 L 625.57,356.86 L 625.55,356.9 L 625.53,356.94 L 625.5,356.98 L 625.47,357.01 L 625.44,357.03 L 625.41,357.06 L 625.37,357.08 L 625.32,357.1 L 625.3,357.11 L 625.27,357.12 L 625.25,357.12 L 625.22,357.13 L 625.19,357.14 L 625.16,357.14 L 625.13,357.15 L 625.1,357.15 L 625.07,357.16 L 625.03,357.16 L 624.99,357.16 L 624.96,357.16 L 624.92,357.17 L 624.88,357.17 L 624.84,357.17 L 624.79,357.17 L 624.75,357.17 L 624.7,357.17 L 624.65,357.18 L 624.6,357.18 L 624.55,357.18 L 624.5,357.18 C 621.41,353.99 617.03,353.99 615.43,353.99 L 615.43,352.44 C 616.43,352.44 619.37,352.44 621.96,353.74 L 621.96,327.93 C 621.96,326.14 621.81,325.54 617.33,325.54 L 615.73,325.54 L 615.73,324 C 617.48,324.15 621.81,324.15 623.8,324.15 C 625.79,324.15 630.13,324.15 631.87,324 L 631.87,325.54 L 630.28,325.54 C 625.79,325.54 625.65,326.09 625.65,327.93 L 625.65,355.88 z "
             id="path2882" /><path
             style="fill:#000000;stroke-width:0"
             d="M 650.65,355.88 L 650.65,355.93 L 650.64,355.99 L 650.64,356.04 L 650.64,356.09 L 650.64,356.14 L 650.64,356.19 L 650.64,356.23 L 650.64,356.28 L 650.64,356.32 L 650.64,356.36 L 650.64,356.4 L 650.64,356.44 L 650.64,356.48 L 650.63,356.52 L 650.63,356.55 L 650.63,356.59 L 650.62,356.62 L 650.62,356.65 L 650.61,356.71 L 650.6,356.76 L 650.58,356.81 L 650.57,356.86 L 650.55,356.9 L 650.53,356.94 L 650.5,356.98 L 650.47,357.01 L 650.44,357.03 L 650.41,357.06 L 650.37,357.08 L 650.32,357.1 L 650.3,357.11 L 650.27,357.12 L 650.25,357.12 L 650.22,357.13 L 650.19,357.14 L 650.16,357.14 L 650.13,357.15 L 650.1,357.15 L 650.07,357.16 L 650.03,357.16 L 649.99,357.16 L 649.96,357.16 L 649.92,357.17 L 649.88,357.17 L 649.84,357.17 L 649.79,357.17 L 649.75,357.17 L 649.7,357.17 L 649.65,357.18 L 649.6,357.18 L 649.55,357.18 L 649.5,357.18 C 646.41,353.99 642.03,353.99 640.43,353.99 L 640.43,352.44 C 641.43,352.44 644.37,352.44 646.96,353.74 L 646.96,327.93 C 646.96,326.14 646.81,325.54 642.33,325.54 L 640.73,325.54 L 640.73,324 C 642.48,324.15 646.81,324.15 648.8,324.15 C 650.79,324.15 655.13,324.15 656.87,324 L 656.87,325.54 L 655.28,325.54 C 650.79,325.54 650.65,326.09 650.65,327.93 L 650.65,355.88 z "
             id="path2884" /><path
             style="fill:#000000;stroke-width:0"
             d="M 745.37,332.67 L 744.12,332.67 C 743.87,331.17 743.52,328.98 743.02,328.23 C 742.68,327.84 739.39,327.84 738.29,327.84 L 729.33,327.84 L 734.6,332.96 C 742.38,339.84 745.37,342.53 745.37,347.51 C 745.37,353.19 740.88,357.18 734.8,357.18 C 729.18,357.18 725.49,352.59 725.49,348.16 C 725.49,345.37 727.98,345.37 728.13,345.37 C 728.98,345.37 730.72,345.97 730.72,348.01 C 730.72,349.3 729.82,350.6 728.08,350.6 C 727.68,350.6 727.58,350.6 727.43,350.55 C 728.58,353.79 731.27,355.63 734.16,355.63 C 738.69,355.63 740.83,351.6 740.83,347.51 C 740.83,343.53 738.34,339.59 735.6,336.5 L 726.04,325.84 C 725.49,325.3 725.49,325.2 725.49,324 L 743.97,324 L 745.37,332.67 z "
             id="path2886" /><path
             style="fill:#000000;stroke-width:0"
             d="M 845.71,354.34 L 845.75,354.39 L 845.79,354.44 L 845.83,354.49 L 845.86,354.54 L 845.89,354.59 L 845.92,354.63 L 845.95,354.67 L 845.97,354.71 L 845.99,354.75 L 846.01,354.79 L 846.03,354.83 L 846.05,354.87 L 846.07,354.92 L 846.08,354.96 L 846.09,355 L 846.1,355.04 L 846.11,355.08 L 846.12,355.13 L 846.13,355.18 L 846.14,355.23 L 846.14,355.28 L 846.15,355.33 L 846.15,355.39 L 846.15,355.45 L 846.16,355.51 L 846.16,355.58 L 846.16,355.65 L 846.16,355.73 L 846.16,355.81 L 846.16,355.89 L 846.16,355.98 L 846.16,356.03 L 846.16,356.08 L 834.05,356.08 C 827.98,356.08 827.88,356.73 827.68,357.67 L 826.43,357.67 L 824.79,347.41 L 826.03,347.41 C 826.18,348.21 826.63,351.35 827.28,351.95 C 827.63,352.24 831.52,352.24 832.16,352.24 L 842.47,352.24 C 841.93,351.45 837.99,346.02 836.9,344.38 C 832.41,337.65 830.77,330.73 830.77,325.64 C 830.77,325.14 830.77,322.9 833.06,322.9 C 835.35,322.9 835.35,325.14 835.35,325.64 L 835.35,328.18 C 835.35,330.93 835.5,333.66 835.9,336.36 C 836.1,337.5 836.79,341.79 838.98,344.87 L 845.71,354.34 z "
             id="path2888" /><path
             style="fill:#000000;stroke-width:0"
             d="M 524.4,243.22 L 537.65,243.22 L 537.65,238.89 C 537.65,237.09 537.55,236.54 533.86,236.54 L 532.81,236.54 L 532.81,235 C 534.85,235.15 537.45,235.15 539.54,235.15 C 541.63,235.15 544.27,235.15 546.31,235 L 546.31,236.54 L 545.27,236.54 C 541.58,236.54 541.48,237.09 541.48,238.89 L 541.48,243.22 L 546.46,243.22 L 546.46,244.76 L 541.48,244.76 L 541.48,267.43 C 541.48,268.43 541.48,268.72 540.68,268.72 C 540.23,268.72 540.09,268.72 539.69,268.13 L 524.4,244.76 L 525.79,244.76 L 537.95,263.34 L 537.95,244.76 L 525.79,244.76 L 524.4,244.76 L 524.4,243.22 z "
             id="path2890" /><path
             style="fill:#000000;stroke-width:0"
             d="M 645.37,245.01 L 645.36,245.56 L 645.32,246.11 L 645.26,246.65 L 645.18,247.18 L 645.08,247.71 L 644.95,248.22 L 644.81,248.72 L 644.64,249.22 L 644.46,249.7 L 644.26,250.17 L 644.03,250.63 L 643.79,251.07 L 643.53,251.5 L 643.25,251.91 L 642.96,252.31 L 642.65,252.69 L 642.33,253.05 L 641.99,253.4 L 641.63,253.73 L 641.26,254.03 L 640.88,254.32 L 640.48,254.59 L 640.07,254.83 L 639.65,255.05 L 639.22,255.25 L 638.77,255.42 L 638.32,255.57 L 637.85,255.7 L 637.38,255.79 L 636.89,255.86 L 636.4,255.91 L 635.9,255.92 C 633.51,255.92 631.37,255.13 629.57,253.38 L 629.57,263.09 C 630.57,262.8 632.22,262.45 633.81,262.45 C 639.94,262.45 643.42,266.98 643.42,267.63 C 643.42,267.93 643.27,268.18 642.93,268.18 C 642.88,268.18 642.78,268.18 642.53,268.03 C 641.53,267.58 639.09,266.58 635.75,266.58 C 633.76,266.58 631.47,266.93 629.13,267.98 C 628.73,268.13 628.63,268.13 628.53,268.13 C 628.03,268.13 628.03,267.73 628.03,266.93 L 628.03,252.18 C 628.03,251.29 628.03,250.89 628.73,250.89 C 629.08,250.89 629.18,251.04 629.38,251.34 C 629.93,252.14 631.77,254.82 635.8,254.82 C 638.39,254.82 639.64,252.54 640.03,251.64 C 640.83,249.79 640.93,247.85 640.93,245.36 C 640.93,243.62 640.93,240.63 639.74,238.54 C 638.54,236.59 636.7,235.3 634.41,235.3 C 630.77,235.3 627.93,237.94 627.09,240.88 C 627.23,240.83 627.38,240.78 627.93,240.78 C 629.57,240.78 630.42,242.02 630.42,243.22 C 630.42,244.41 629.57,245.66 627.93,245.66 C 627.23,245.66 625.49,245.31 625.49,243.02 C 625.49,238.73 628.93,233.9 634.51,233.9 C 640.28,233.9 645.37,238.69 645.37,245.01 z "
             id="path2892" /><path
             style="fill:#000000;stroke-width:0"
             d="M 724.65,266.88 L 724.65,266.93 L 724.64,266.99 L 724.64,267.04 L 724.64,267.09 L 724.64,267.14 L 724.64,267.19 L 724.64,267.23 L 724.64,267.28 L 724.64,267.32 L 724.64,267.36 L 724.64,267.4 L 724.64,267.44 L 724.64,267.48 L 724.63,267.52 L 724.63,267.55 L 724.63,267.59 L 724.62,267.62 L 724.62,267.65 L 724.61,267.71 L 724.6,267.76 L 724.58,267.81 L 724.57,267.86 L 724.55,267.9 L 724.53,267.94 L 724.5,267.98 L 724.47,268.01 L 724.44,268.03 L 724.41,268.06 L 724.37,268.08 L 724.32,268.1 L 724.3,268.11 L 724.27,268.12 L 724.25,268.12 L 724.22,268.13 L 724.19,268.14 L 724.16,268.14 L 724.13,268.15 L 724.1,268.15 L 724.07,268.16 L 724.03,268.16 L 723.99,268.16 L 723.96,268.16 L 723.92,268.17 L 723.88,268.17 L 723.84,268.17 L 723.79,268.17 L 723.75,268.17 L 723.7,268.17 L 723.65,268.18 L 723.6,268.18 L 723.55,268.18 L 723.5,268.18 C 720.41,264.99 716.03,264.99 714.43,264.99 L 714.43,263.44 C 715.43,263.44 718.37,263.44 720.96,264.74 L 720.96,238.93 C 720.96,237.14 720.81,236.54 716.33,236.54 L 714.73,236.54 L 714.73,235 C 716.48,235.15 720.81,235.15 722.8,235.15 C 724.79,235.15 729.13,235.15 730.87,235 L 730.87,236.54 L 729.28,236.54 C 724.79,236.54 724.65,237.09 724.65,238.93 L 724.65,266.88 z "
             id="path2894" /><path
             style="fill:#000000;stroke-width:0"
             d="M 741.57,251.34 L 741.57,252.54 C 741.57,265.14 747.75,266.93 750.29,266.93 C 751.49,266.93 753.58,266.63 754.68,264.94 C 753.93,264.94 751.94,264.94 751.94,262.7 C 751.94,261.15 753.13,260.41 754.23,260.41 C 755.02,260.41 756.52,260.85 756.52,262.8 C 756.52,265.79 754.33,268.18 750.19,268.18 C 743.82,268.18 737.09,261.75 737.09,250.74 C 737.09,237.44 742.87,233.9 747.5,233.9 C 753.03,233.9 757.77,238.59 757.77,245.16 C 757.77,251.49 753.33,256.27 747.8,256.27 L 747.75,255.13 C 748.55,255.13 750.84,255.13 752.39,252.04 C 753.28,250.19 753.28,247.65 753.28,245.21 C 753.28,242.82 753.28,240.33 752.43,238.54 C 750.94,235.55 748.65,235.3 747.5,235.3 L 747.5,235.3 C 744.36,235.3 742.87,238.29 742.57,239.04 C 741.68,241.38 741.68,245.36 741.68,246.26 C 741.68,250.15 743.27,255.13 747.75,255.13 L 747.8,256.27 C 744.41,256.27 742.57,253.73 741.57,251.34 z "
             id="path2896" /><path
             style="fill:#000000;stroke-width:0"
             d="M 840.28,250.84 L 840.28,249.25 C 840.28,237.59 835.1,235.3 832.21,235.3 C 831.36,235.3 828.68,235.4 827.33,237.09 C 829.52,237.09 829.92,238.54 829.92,239.38 C 829.92,240.93 828.73,241.68 827.63,241.68 C 826.83,241.68 825.34,241.23 825.34,239.29 C 825.34,235.95 828.03,233.9 832.26,233.9 C 838.69,233.9 844.77,240.68 844.77,251.39 C 844.77,264.79 839.03,268.18 834.6,268.18 C 831.86,268.18 829.42,267.28 827.28,265.04 C 825.24,262.8 824.09,260.7 824.09,256.97 C 824.09,250.74 828.48,245.86 834.05,245.86 L 834.1,247 C 833.31,247 831.02,247 829.47,250.15 C 828.57,251.98 828.57,254.48 828.57,256.92 C 828.57,259.61 828.57,261.95 829.62,263.79 C 830.97,266.28 832.86,266.93 834.6,266.93 C 836.9,266.93 838.54,265.24 839.39,263 C 839.98,261.4 840.18,258.26 840.18,255.97 C 840.18,251.84 838.49,247 834.1,247 L 834.1,247 L 834.05,245.86 C 837.09,245.86 839.14,247.95 840.28,250.84 z "
             id="path2898" /><path
             style="fill:#000000;stroke-width:0"
             d="M 525.65,176.88 L 525.65,176.93 L 525.64,176.99 L 525.64,177.04 L 525.64,177.09 L 525.64,177.14 L 525.64,177.19 L 525.64,177.23 L 525.64,177.28 L 525.64,177.32 L 525.64,177.36 L 525.64,177.4 L 525.64,177.44 L 525.64,177.48 L 525.63,177.52 L 525.63,177.55 L 525.63,177.59 L 525.62,177.62 L 525.62,177.65 L 525.61,177.71 L 525.6,177.76 L 525.58,177.81 L 525.57,177.86 L 525.55,177.9 L 525.53,177.94 L 525.5,177.98 L 525.47,178.01 L 525.44,178.03 L 525.41,178.06 L 525.37,178.08 L 525.32,178.1 L 525.3,178.11 L 525.27,178.12 L 525.25,178.12 L 525.22,178.13 L 525.19,178.14 L 525.16,178.14 L 525.13,178.15 L 525.1,178.15 L 525.07,178.16 L 525.03,178.16 L 524.99,178.16 L 524.96,178.16 L 524.92,178.17 L 524.88,178.17 L 524.84,178.17 L 524.79,178.17 L 524.75,178.17 L 524.7,178.17 L 524.65,178.18 L 524.6,178.18 L 524.55,178.18 L 524.5,178.18 C 521.41,174.99 517.03,174.99 515.43,174.99 L 515.43,173.44 C 516.43,173.44 519.37,173.44 521.96,174.74 L 521.96,148.93 C 521.96,147.14 521.81,146.54 517.33,146.54 L 515.73,146.54 L 515.73,145 C 517.48,145.15 521.81,145.15 523.8,145.15 C 525.79,145.15 530.13,145.15 531.87,145 L 531.87,146.54 L 530.28,146.54 C 525.79,146.54 525.65,147.09 525.65,148.93 L 525.65,176.88 z "
             id="path2900" /><path
             style="fill:#000000;stroke-width:0"
             d="M 558.37,155.01 L 558.36,155.56 L 558.32,156.11 L 558.26,156.65 L 558.18,157.18 L 558.08,157.71 L 557.95,158.22 L 557.81,158.72 L 557.64,159.22 L 557.46,159.7 L 557.26,160.17 L 557.03,160.63 L 556.79,161.07 L 556.53,161.5 L 556.25,161.91 L 555.96,162.31 L 555.65,162.69 L 555.33,163.05 L 554.99,163.4 L 554.63,163.73 L 554.26,164.03 L 553.88,164.32 L 553.48,164.59 L 553.07,164.83 L 552.65,165.05 L 552.22,165.25 L 551.77,165.42 L 551.32,165.57 L 550.85,165.7 L 550.38,165.79 L 549.89,165.86 L 549.4,165.91 L 548.9,165.92 C 546.51,165.92 544.37,165.13 542.57,163.38 L 542.57,173.09 C 543.57,172.8 545.22,172.45 546.81,172.45 C 552.94,172.45 556.42,176.98 556.42,177.63 C 556.42,177.93 556.27,178.18 555.93,178.18 C 555.88,178.18 555.78,178.18 555.53,178.03 C 554.53,177.58 552.09,176.58 548.75,176.58 C 546.76,176.58 544.47,176.93 542.13,177.98 C 541.73,178.13 541.63,178.13 541.53,178.13 C 541.03,178.13 541.03,177.73 541.03,176.93 L 541.03,162.18 C 541.03,161.29 541.03,160.89 541.73,160.89 C 542.08,160.89 542.18,161.04 542.38,161.34 C 542.93,162.14 544.77,164.82 548.8,164.82 C 551.39,164.82 552.64,162.54 553.03,161.64 C 553.83,159.79 553.93,157.85 553.93,155.36 C 553.93,153.62 553.93,150.63 552.74,148.54 C 551.54,146.59 549.7,145.3 547.41,145.3 C 543.77,145.3 540.93,147.94 540.09,150.88 C 540.23,150.83 540.38,150.78 540.93,150.78 C 542.57,150.78 543.42,152.02 543.42,153.22 C 543.42,154.41 542.57,155.66 540.93,155.66 C 540.23,155.66 538.49,155.31 538.49,153.02 C 538.49,148.73 541.93,143.9 547.51,143.9 C 553.28,143.9 558.37,148.69 558.37,155.01 z "
             id="path2902" /><path
             style="fill:#000000;stroke-width:0"
             d="M 625.65,176.88 L 625.65,176.93 L 625.64,176.99 L 625.64,177.04 L 625.64,177.09 L 625.64,177.14 L 625.64,177.19 L 625.64,177.23 L 625.64,177.28 L 625.64,177.32 L 625.64,177.36 L 625.64,177.4 L 625.64,177.44 L 625.64,177.48 L 625.63,177.52 L 625.63,177.55 L 625.63,177.59 L 625.62,177.62 L 625.62,177.65 L 625.61,177.71 L 625.6,177.76 L 625.58,177.81 L 625.57,177.86 L 625.55,177.9 L 625.53,177.94 L 625.5,177.98 L 625.47,178.01 L 625.44,178.03 L 625.41,178.06 L 625.37,178.08 L 625.32,178.1 L 625.3,178.11 L 625.27,178.12 L 625.25,178.12 L 625.22,178.13 L 625.19,178.14 L 625.16,178.14 L 625.13,178.15 L 625.1,178.15 L 625.07,178.16 L 625.03,178.16 L 624.99,178.16 L 624.96,178.16 L 624.92,178.17 L 624.88,178.17 L 624.84,178.17 L 624.79,178.17 L 624.75,178.17 L 624.7,178.17 L 624.65,178.18 L 624.6,178.18 L 624.55,178.18 L 624.5,178.18 C 621.41,174.99 617.03,174.99 615.43,174.99 L 615.43,173.44 C 616.43,173.44 619.37,173.44 621.96,174.74 L 621.96,148.93 C 621.96,147.14 621.81,146.54 617.33,146.54 L 615.73,146.54 L 615.73,145 C 617.48,145.15 621.81,145.15 623.8,145.15 C 625.79,145.15 630.13,145.15 631.87,145 L 631.87,146.54 L 630.28,146.54 C 625.79,146.54 625.65,147.09 625.65,148.93 L 625.65,176.88 z "
             id="path2904" /><path
             style="fill:#000000;stroke-width:0"
             d="M 658.91,160.94 L 658.91,161.69 L 658.9,162.43 L 658.88,163.18 L 658.85,163.92 L 658.8,164.67 L 658.74,165.41 L 658.67,166.15 L 658.57,166.88 L 658.46,167.61 L 658.32,168.34 L 658.16,169.06 L 657.97,169.78 L 657.75,170.49 L 657.51,171.2 L 657.23,171.9 L 657.08,172.25 L 656.92,172.6 C 654.63,177.38 650.55,178.18 648.45,178.18 C 645.47,178.18 641.83,176.88 639.78,172.25 C 638.19,168.81 637.94,164.93 637.94,160.94 C 637.94,157.2 638.14,152.72 640.18,148.93 C 642.33,144.9 645.96,143.9 648.4,143.9 L 648.4,145 C 646.46,145 643.52,146.25 642.63,151.03 C 642.08,154.02 642.08,158.6 642.08,161.54 C 642.08,164.73 642.08,168.01 642.48,170.7 C 643.42,176.63 647.16,177.08 648.4,177.08 C 650.05,177.08 653.34,176.18 654.28,171.25 C 654.78,168.46 654.78,164.68 654.78,161.54 C 654.78,157.8 654.78,154.41 654.23,151.23 C 653.48,146.5 650.65,145 648.4,145 L 648.4,145 L 648.4,143.9 C 651.09,143.9 654.88,144.95 657.07,149.68 C 658.66,153.12 658.91,157 658.91,160.94 z "
             id="path2906" /><path
             style="fill:#000000;stroke-width:0"
             d="M 737.45,162.54 L 737.82,162.67 L 738.2,162.81 L 738.56,162.97 L 738.92,163.14 L 739.27,163.32 L 739.61,163.51 L 739.94,163.71 L 740.26,163.92 L 740.57,164.14 L 740.87,164.37 L 741.17,164.61 L 741.45,164.86 L 741.72,165.12 L 741.98,165.39 L 742.23,165.66 L 742.46,165.95 L 742.69,166.24 L 742.9,166.54 L 743.1,166.84 L 743.29,167.15 L 743.46,167.47 L 743.62,167.8 L 743.77,168.13 L 743.9,168.46 L 744.02,168.8 L 744.12,169.15 L 744.21,169.5 L 744.29,169.85 L 744.34,170.21 L 744.38,170.57 L 744.41,170.93 L 744.42,171.3 C 744.42,175.39 740.03,178.18 735.25,178.18 C 730.22,178.18 726.44,175.19 726.44,171.4 C 726.44,169.76 727.53,168.81 728.98,168.81 C 730.52,168.81 731.52,169.91 731.52,171.35 C 731.52,173.84 729.18,173.84 728.43,173.84 C 729.97,176.28 733.26,176.93 735.05,176.93 C 737.1,176.93 739.84,175.84 739.84,171.35 C 739.84,170.75 739.74,167.86 738.44,165.67 C 736.95,163.28 735.25,163.13 734.01,163.08 C 733.61,163.03 732.41,162.93 732.07,162.93 C 731.67,162.88 731.32,162.83 731.32,162.34 C 731.32,161.79 731.67,161.79 732.52,161.79 L 734.71,161.79 C 738.79,161.79 740.63,158.4 740.63,153.52 C 740.63,146.74 737.2,145.3 735,145.3 C 732.86,145.3 729.13,146.15 727.38,149.09 C 729.13,148.84 730.67,149.93 730.67,151.82 C 730.67,153.62 729.33,154.61 727.88,154.61 C 726.69,154.61 725.09,153.92 725.09,151.73 C 725.09,147.19 729.73,143.9 735.16,143.9 C 741.23,143.9 745.77,148.44 745.77,153.52 C 745.77,157.6 742.63,161.49 737.45,162.54 z "
             id="path2908" /><path
             style="fill:#000000;stroke-width:0"
             d="M 828.57,161.34 L 828.57,162.54 C 828.57,175.14 834.75,176.93 837.29,176.93 C 838.49,176.93 840.58,176.63 841.68,174.94 C 840.93,174.94 838.94,174.94 838.94,172.7 C 838.94,171.15 840.13,170.41 841.23,170.41 C 842.02,170.41 843.52,170.85 843.52,172.8 C 843.52,175.79 841.33,178.18 837.19,178.18 C 830.82,178.18 824.09,171.75 824.09,160.74 C 824.09,147.44 829.87,143.9 834.5,143.9 C 840.03,143.9 844.77,148.59 844.77,155.16 C 844.77,161.49 840.33,166.27 834.8,166.27 L 834.75,165.13 C 835.55,165.13 837.84,165.13 839.39,162.04 C 840.28,160.19 840.28,157.65 840.28,155.21 C 840.28,152.82 840.28,150.33 839.43,148.54 C 837.94,145.55 835.65,145.3 834.5,145.3 L 834.5,145.3 C 831.36,145.3 829.87,148.29 829.57,149.04 C 828.68,151.38 828.68,155.36 828.68,156.26 C 828.68,160.15 830.27,165.13 834.75,165.13 L 834.8,166.27 C 831.41,166.27 829.57,163.73 828.57,161.34 z "
             id="path2910" /><polygon
             style="fill:#000000;stroke-width:0"
             points="895.5,366.33 898.94,366.33 898.94,455.94 882.35,455.94 882.35,452.5 895.5,452.5 895.5,366.33 "
             id="polygon2912" /><polygon
             style="fill:#000000;stroke-width:0"
             points="898.94,366.05 895.5,366.05 895.5,336.06 898.94,336.06 898.94,366.05 "
             id="polygon2914" /><polygon
             style="fill:#000000;stroke-width:0"
             points="898.94,336.05 895.5,336.05 895.5,306.06 898.94,306.06 898.94,336.05 "
             id="polygon2916" /><polygon
             style="fill:#000000;stroke-width:0"
             points="898.94,307.05 895.5,307.05 895.5,277.06 898.94,277.06 898.94,307.05 "
             id="polygon2918" /><polygon
             style="fill:#000000;stroke-width:0"
             points="898.94,277.05 895.5,277.05 895.5,247.06 898.94,247.06 898.94,277.05 "
             id="polygon2920" /><polygon
             style="fill:#000000;stroke-width:0"
             points="898.94,247.05 895.5,247.05 895.5,217.06 898.94,217.06 898.94,247.05 "
             id="polygon2922" /><polygon
             style="fill:#000000;stroke-width:0"
             points="895.5,130.82 882.35,130.82 882.35,127.38 898.94,127.38 898.94,216.99 895.5,216.99 895.5,130.82 "
             id="polygon2924" /></g>      </g>
      <rect
         rx="39.006294"
         ry="42.84407"
         y="239.86142"
         x="51.243187"
         height="478.01257"
         width="78.012589"
         transform="rotate(-48 90 279)"
         id="rect3966"
         style="opacity:0.9;fill:none;fill-opacity:0.29411765;stroke:#00ff00;stroke-width:1.98742282;stroke-miterlimit:4;stroke-dasharray:none;stroke-opacity:1" />
    </g>
  </g>
</svg>
